<svg style="display: none;">
  <symbol xmlns="http://www.w3.org/2000/svg" viewBox="0 0 512 512" id="filter">
    <path
      d="M420.404 0H91.596C41.09 0 0 41.09 0 91.596v328.809C0 470.91 41.09 512 91.596 512h328.809C470.91 512 512 470.91 512 420.404V91.596C512 41.09 470.91 0 420.404 0zM482 420.404C482 454.368 454.368 482 420.404 482H91.596C57.632 482 30 454.368 30 420.404V91.596C30 57.632 57.632 30 91.596 30h328.809C454.368 30 482 57.632 482 91.596z">
    </path>
    <path
      d="M432.733 112.467H204.272c-6.281-18.655-23.926-32.133-44.672-32.133s-38.391 13.478-44.672 32.133H79.267c-8.284 0-15 6.716-15 15s6.716 15 15 15h35.662c6.281 18.655 23.926 32.133 44.672 32.133s38.391-13.478 44.672-32.133h228.461c8.284 0 15-6.716 15-15s-6.716-15-15.001-15zM159.6 144.6c-9.447 0-17.133-7.686-17.133-17.133s7.686-17.133 17.133-17.133 17.133 7.686 17.133 17.133S169.047 144.6 159.6 144.6zM432.733 241h-35.662c-6.281-18.655-23.927-32.133-44.672-32.133s-38.39 13.478-44.671 32.133H79.267c-8.284 0-15 6.716-15 15s6.716 15 15 15h228.461c6.281 18.655 23.927 32.133 44.672 32.133s38.391-13.478 44.672-32.133h35.662c8.284 0 15-6.716 15-15s-6.716-15-15.001-15zM352.4 273.133c-9.447 0-17.133-7.686-17.133-17.133s7.686-17.133 17.133-17.133 17.133 7.686 17.133 17.133-7.686 17.133-17.133 17.133zm80.333 96.4H268.539c-6.281-18.655-23.926-32.133-44.672-32.133s-38.391 13.478-44.672 32.133H79.267c-8.284 0-15 6.716-15 15s6.716 15 15 15h99.928c6.281 18.655 23.926 32.133 44.672 32.133s38.391-13.478 44.672-32.133h164.195c8.284 0 15-6.716 15-15s-6.716-15-15.001-15zm-208.866 32.134c-9.447 0-17.133-7.686-17.133-17.133s7.686-17.133 17.133-17.133S241 375.086 241 384.533s-7.686 17.134-17.133 17.134z">
    </path>
  </symbol>

  <symbol xmlns="http://www.w3.org/2000/svg" viewBox="0 0 56.966 56.966" id="search">
    <path
      d="M55.146 51.887L41.588 37.786A22.926 22.926 0 0046.984 23c0-12.682-10.318-23-23-23s-23 10.318-23 23 10.318 23 23 23c4.761 0 9.298-1.436 13.177-4.162l13.661 14.208c.571.593 1.339.92 2.162.92.779 0 1.518-.297 2.079-.837a3.004 3.004 0 00.083-4.242zM23.984 6c9.374 0 17 7.626 17 17s-7.626 17-17 17-17-7.626-17-17 7.626-17 17-17z">
    </path>
  </symbol>
</svg>

